<?xml version="1.0" encoding="UTF-8"?>
<svg xmlns="http://www.w3.org/2000/svg" width="1200" height="390" viewBox="0 0 1200 390" role="img">
<style>
  .ar { font-family: Tahoma, 'IBM Plex Sans Arabic', Arial, sans-serif; }
  .en { font-family: Inter, Arial, sans-serif; }
  .label { font-size: 20px; font-weight: 700; letter-spacing: 2px; }
  .small { font-size: 16px; }
</style><rect width="1200" height="390" fill="#FBFAF7"/><g transform="translate(320.0 28) scale(1.0218978102189782)">
<path fill="#092D24" d="M0 0h100c31 0 48 17 48 43 0 18-9 31-25 39 20 6 31 22 31 42 0 28-21 47-53 47H30v-28h70c16 0 26-8 26-20 0-13-11-22-29-22H0V74h97c15 0 24-8 24-21 0-15-10-25-25-25H28L0 0Z"/><path fill="#092D24" d="M190 109l30-27h90V0h30v171h-30v-62h-90v62h-30v-62Z"/><path fill="#092D24" d="M385 0h74c52 0 89 35 89 85 0 51-37 86-89 86h-74l28-28h46c36 0 61-23 61-58 0-34-25-57-61-57h-46L385 0Z"/>
</g><text x="600.0" y="285.6" text-anchor="middle" fill="#092D24" class="en" font-size="76.16000000000001" font-weight="600" letter-spacing="4.48">BIN HAMOOD DEVELOPMENT</text>
</svg>