<?xml version="1.0" encoding="UTF-8"?>
<svg xmlns="http://www.w3.org/2000/svg" width="600cm" height="300cm" viewBox="0 0 2400 1200" role="img">
<style>
  .ar { font-family: Tahoma, 'IBM Plex Sans Arabic', Arial, sans-serif; }
  .en { font-family: Inter, Arial, sans-serif; }
  .label { font-size: 20px; font-weight: 700; letter-spacing: 2px; }
  .small { font-size: 16px; }
</style><rect width="2400" height="1200" fill="#092D24"/><g fill="none" stroke="#B58D55" stroke-width="9.23076923076923" opacity="0.2">
<path d="M-120.0 983.9999999999999 H840.0 V696.0 H1632.0000000000002 V372.0 H2520.0"/>
<path d="M-120.0 1092.0 H1032.0 V804.0 H1824.0 V491.99999999999994 H2520.0"/>
</g><g transform="translate(150 155) scale(1.4233576642335766)">
<path fill="#fff" d="M0 0h100c31 0 48 17 48 43 0 18-9 31-25 39 20 6 31 22 31 42 0 28-21 47-53 47H30v-28h70c16 0 26-8 26-20 0-13-11-22-29-22H0V74h97c15 0 24-8 24-21 0-15-10-25-25-25H28L0 0Z"/><path fill="#fff" d="M190 109l30-27h90V0h30v171h-30v-62h-90v62h-30v-62Z"/><path fill="#fff" d="M385 0h74c52 0 89 35 89 85 0 51-37 86-89 86h-74l28-28h46c36 0 61-23 61-58 0-34-25-57-61-57h-46L385 0Z"/>
</g><text x="2220" y="480" text-anchor="end" fill="#fff" class="ar" font-size="190" font-weight="900">ابنِ أحلامًا أكبر</text><text x="2220" y="650" text-anchor="end" fill="#B58D55" class="en" font-size="52" font-weight="800" letter-spacing="8">BUILD HIGHER DREAMS</text><text x="2220" y="1010" text-anchor="end" fill="#fff" class="en" font-size="44">BHD-OM.COM</text>
</svg>