<?xml version="1.0" encoding="UTF-8"?>
<svg xmlns="http://www.w3.org/2000/svg" width="85cm" height="200cm" viewBox="0 0 850 2000" role="img">
<style>
  .ar { font-family: Tahoma, 'IBM Plex Sans Arabic', Arial, sans-serif; }
  .en { font-family: Inter, Arial, sans-serif; }
  .label { font-size: 20px; font-weight: 700; letter-spacing: 2px; }
  .small { font-size: 16px; }
</style><rect width="850" height="2000" fill="#092D24"/><g fill="none" stroke="#B58D55" stroke-width="3.269230769230769" opacity="0.18">
<path d="M-42.5 1640.0 H297.5 V1160.0 H578.0 V620.0 H892.5"/>
<path d="M-42.5 1820.0 H365.5 V1340.0 H646.0 V820.0 H892.5"/>
</g><rect width="204.0" height="8" fill="#C8102E"/><rect x="204.0" width="212.5" height="8" fill="#fff"/><rect x="416.5" width="433.5" height="8" fill="#0B6B45"/>
<g transform="translate(68.0 160.0) scale(0.48083941605839414)">
<path fill="#fff" d="M0 0h100c31 0 48 17 48 43 0 18-9 31-25 39 20 6 31 22 31 42 0 28-21 47-53 47H30v-28h70c16 0 26-8 26-20 0-13-11-22-29-22H0V74h97c15 0 24-8 24-21 0-15-10-25-25-25H28L0 0Z"/><path fill="#fff" d="M190 109l30-27h90V0h30v171h-30v-62h-90v62h-30v-62Z"/><path fill="#fff" d="M385 0h74c52 0 89 35 89 85 0 51-37 86-89 86h-74l28-28h46c36 0 61-23 61-58 0-34-25-57-61-57h-46L385 0Z"/>
</g>
<text x="68.0" y="1080.0" fill="#B58D55" class="en" font-size="27.2" font-weight="800" letter-spacing="3.4">BHD · OMAN</text>
<text x="782.0" y="1320.0" text-anchor="end" fill="#fff" class="ar" font-size="60.349999999999994" font-weight="900">ابنِ أحلامًا أكبر</text>
<text x="782.0" y="1480.0" text-anchor="end" fill="rgba(255,255,255,.64)" class="ar" font-size="22.099999999999998">منتجات وأعمال وتجارب رقمية تبني المستقبل</text>
<text x="68.0" y="1820.0" fill="#fff" class="en" font-size="15.299999999999999" font-weight="700" letter-spacing="2.5500000000000003">BHD · BIN HAMOOD DEVELOPMENT · MUSCAT, OMAN</text>
</svg>