<?xml version="1.0" encoding="UTF-8"?>
<svg xmlns="http://www.w3.org/2000/svg" width="1920" height="600" viewBox="0 0 1920 600" role="img">
<style>
  .ar { font-family: Tahoma, 'IBM Plex Sans Arabic', Arial, sans-serif; }
  .en { font-family: Inter, Arial, sans-serif; }
  .label { font-size: 20px; font-weight: 700; letter-spacing: 2px; }
  .small { font-size: 16px; }
</style><rect width="1920" height="600" fill="#FBFAF7"/><g fill="none" stroke="#08A39F" stroke-width="7.384615384615385" opacity="0.12">
<path d="M-96.0 491.99999999999994 H672.0 V348.0 H1305.6000000000001 V186.0 H2016.0"/>
<path d="M-96.0 546.0 H825.6 V402.0 H1459.2 V245.99999999999997 H2016.0"/>
</g><rect width="460.79999999999995" height="8" fill="#C8102E"/><rect x="460.79999999999995" width="480.0" height="8" fill="#fff"/><rect x="940.8" width="979.2" height="8" fill="#0B6B45"/><g transform="translate(120 165) scale(1.094890510948905)">
<path fill="#08A39F" d="M0 0h100c31 0 48 17 48 43 0 18-9 31-25 39 20 6 31 22 31 42 0 28-21 47-53 47H30v-28h70c16 0 26-8 26-20 0-13-11-22-29-22H0V74h97c15 0 24-8 24-21 0-15-10-25-25-25H28L0 0Z"/><path fill="#174B70" d="M190 109l30-27h90V0h30v171h-30v-62h-90v62h-30v-62Z"/><path fill="#08A39F" d="M385 0h74c52 0 89 35 89 85 0 51-37 86-89 86h-74l28-28h46c36 0 61-23 61-58 0-34-25-57-61-57h-46L385 0Z"/>
</g><text x="1790" y="245" text-anchor="end" fill="#092D24" class="ar" font-size="105" font-weight="900">ابنِ أحلامًا أكبر</text><text x="1790" y="345" text-anchor="end" fill="#66756F" class="ar" font-size="36">من عُمان، نبني منتجات وأعمالًا للمستقبل</text><rect x="1450" y="415" width="340" height="82" rx="18" fill="#092D24"/><text x="1620" y="468" text-anchor="middle" fill="#fff" class="ar" font-size="27" font-weight="800">اكتشف منظومة BHD</text>
</svg>